{
	"asset":{
		"generator":"Khronos glTF Blender I/O v3.5.30",
		"version":"2.0"
	},
	"scene":0,
	"scenes":[
		{
			"name":"Scene",
			"nodes":[
				0,
				1,
				2
			]
		}
	],
	"nodes":[
		{
			"mesh":0,
			"name":"Flower_bush_white",
			"scale":[
				0.005241767503321171,
				0.005241767503321171,
				0.005241767503321171
			],
			"translation":[
				-0.0004155642818659544,
				0.00809780228883028,
				0.1958456188440323
			]
		},
		{
			"mesh":1,
			"name":"Flower_bush_blue",
			"scale":[
				0.0038090439047664404,
				0.0038090439047664404,
				0.0038090439047664404
			],
			"translation":[
				0.1272640824317932,
				0.004037484060972929,
				0.28795182704925537
			]
		},
		{
			"mesh":2,
			"name":"Flower_bush_red",
			"scale":[
				0.002816843567416072,
				0.002816843567416072,
				0.002816843567416072
			],
			"translation":[
				0.13314534723758698,
				0.004806129261851311,
				0.11498403549194336
			]
		}
	],
	"animations":[
		{
			"channels":[
				{
					"sampler":0,
					"target":{
						"node":0,
						"path":"scale"
					}
				},
				{
					"sampler":1,
					"target":{
						"node":0,
						"path":"translation"
					}
				},
				{
					"sampler":2,
					"target":{
						"node":1,
						"path":"scale"
					}
				},
				{
					"sampler":3,
					"target":{
						"node":1,
						"path":"translation"
					}
				},
				{
					"sampler":4,
					"target":{
						"node":2,
						"path":"scale"
					}
				},
				{
					"sampler":5,
					"target":{
						"node":2,
						"path":"translation"
					}
				}
			],
			"name":"Bloom",
			"samplers":[
				{
					"input":24,
					"interpolation":"LINEAR",
					"output":25
				},
				{
					"input":26,
					"interpolation":"STEP",
					"output":27
				},
				{
					"input":24,
					"interpolation":"LINEAR",
					"output":28
				},
				{
					"input":26,
					"interpolation":"STEP",
					"output":29
				},
				{
					"input":24,
					"interpolation":"LINEAR",
					"output":30
				},
				{
					"input":26,
					"interpolation":"STEP",
					"output":31
				}
			]
		}
	],
	"materials":[
		{
			"doubleSided":true,
			"name":"Material",
			"pbrMetallicRoughness":{
				"baseColorFactor":[
					0.8000000715255737,
					0.15219201147556305,
					0.15572677552700043,
					1
				],
				"metallicFactor":0,
				"roughnessFactor":0.5
			}
		},
		{
			"doubleSided":true,
			"name":"Material.004",
			"pbrMetallicRoughness":{
				"baseColorFactor":[
					0.800000011920929,
					0.800000011920929,
					0.800000011920929,
					1
				],
				"metallicFactor":0,
				"roughnessFactor":0.5
			}
		},
		{
			"doubleSided":true,
			"name":"Material.002",
			"pbrMetallicRoughness":{
				"baseColorFactor":[
					0.8668637871742249,
					1,
					0.9650963544845581,
					1
				],
				"metallicFactor":0,
				"roughnessFactor":0.5
			}
		},
		{
			"doubleSided":true,
			"name":"Material.003",
			"pbrMetallicRoughness":{
				"baseColorFactor":[
					1,
					0.91692054271698,
					0.143000990152359,
					1
				],
				"metallicFactor":0,
				"roughnessFactor":0.5
			}
		},
		{
			"doubleSided":true,
			"name":"Material.001",
			"pbrMetallicRoughness":{
				"baseColorFactor":[
					0.04065615311264992,
					0.28753605484962463,
					0.8000000715255737,
					1
				],
				"metallicFactor":0,
				"roughnessFactor":0.5
			}
		}
	],
	"meshes":[
		{
			"name":"Plane.023",
			"primitives":[
				{
					"attributes":{
						"POSITION":0,
						"TEXCOORD_0":1,
						"NORMAL":2
					},
					"indices":3,
					"material":0
				},
				{
					"attributes":{
						"POSITION":4,
						"TEXCOORD_0":5,
						"NORMAL":6
					},
					"indices":7,
					"material":1
				}
			]
		},
		{
			"name":"Plane.030",
			"primitives":[
				{
					"attributes":{
						"POSITION":8,
						"TEXCOORD_0":9,
						"NORMAL":10
					},
					"indices":11,
					"material":2
				},
				{
					"attributes":{
						"POSITION":12,
						"TEXCOORD_0":13,
						"NORMAL":14
					},
					"indices":15,
					"material":3
				}
			]
		},
		{
			"name":"Plane.031",
			"primitives":[
				{
					"attributes":{
						"POSITION":16,
						"TEXCOORD_0":17,
						"NORMAL":18
					},
					"indices":19,
					"material":4
				},
				{
					"attributes":{
						"POSITION":20,
						"TEXCOORD_0":21,
						"NORMAL":22
					},
					"indices":23,
					"material":2
				}
			]
		}
	],
	"accessors":[
		{
			"bufferView":0,
			"componentType":5126,
			"count":192,
			"max":[
				0.6902965903282166,
				0.46065202355384827,
				0.6854687929153442
			],
			"min":[
				-0.718410849571228,
				0,
				-0.702357828617096
			],
			"type":"VEC3"
		},
		{
			"bufferView":1,
			"componentType":5126,
			"count":192,
			"type":"VEC2"
		},
		{
			"bufferView":2,
			"componentType":5126,
			"count":192,
			"type":"VEC3"
		},
		{
			"bufferView":3,
			"componentType":5123,
			"count":264,
			"type":"SCALAR"
		},
		{
			"bufferView":4,
			"componentType":5126,
			"count":638,
			"max":[
				0.2865949869155884,
				0.6248789429664612,
				0.3411293625831604
			],
			"min":[
				-0.3273572027683258,
				0,
				-0.28855809569358826
			],
			"type":"VEC3"
		},
		{
			"bufferView":5,
			"componentType":5126,
			"count":638,
			"type":"VEC2"
		},
		{
			"bufferView":6,
			"componentType":5126,
			"count":638,
			"type":"VEC3"
		},
		{
			"bufferView":7,
			"componentType":5123,
			"count":864,
			"type":"SCALAR"
		},
		{
			"bufferView":8,
			"componentType":5126,
			"count":192,
			"max":[
				0.5902122259140015,
				0.46065202355384827,
				0.5190784335136414
			],
			"min":[
				-0.5592390894889832,
				0,
				-0.4734916090965271
			],
			"type":"VEC3"
		},
		{
			"bufferView":9,
			"componentType":5126,
			"count":192,
			"type":"VEC2"
		},
		{
			"bufferView":10,
			"componentType":5126,
			"count":192,
			"type":"VEC3"
		},
		{
			"bufferView":11,
			"componentType":5123,
			"count":264,
			"type":"SCALAR"
		},
		{
			"bufferView":12,
			"componentType":5126,
			"count":638,
			"max":[
				0.2865948975086212,
				0.626441240310669,
				0.3411293625831604
			],
			"min":[
				-0.3273572027683258,
				0,
				-0.28855809569358826
			],
			"type":"VEC3"
		},
		{
			"bufferView":13,
			"componentType":5126,
			"count":638,
			"type":"VEC2"
		},
		{
			"bufferView":14,
			"componentType":5126,
			"count":638,
			"type":"VEC3"
		},
		{
			"bufferView":15,
			"componentType":5123,
			"count":864,
			"type":"SCALAR"
		},
		{
			"bufferView":16,
			"componentType":5126,
			"count":192,
			"max":[
				0.7477036714553833,
				0.46065202355384827,
				0.6106846332550049
			],
			"min":[
				-0.6038026809692383,
				0,
				-0.5791614651679993
			],
			"type":"VEC3"
		},
		{
			"bufferView":17,
			"componentType":5126,
			"count":192,
			"type":"VEC2"
		},
		{
			"bufferView":18,
			"componentType":5126,
			"count":192,
			"type":"VEC3"
		},
		{
			"bufferView":19,
			"componentType":5123,
			"count":264,
			"type":"SCALAR"
		},
		{
			"bufferView":20,
			"componentType":5126,
			"count":638,
			"max":[
				0.2865948975086212,
				0.626441240310669,
				0.3411293625831604
			],
			"min":[
				-0.3273572027683258,
				0,
				-0.28855809569358826
			],
			"type":"VEC3"
		},
		{
			"bufferView":21,
			"componentType":5126,
			"count":638,
			"type":"VEC2"
		},
		{
			"bufferView":22,
			"componentType":5126,
			"count":638,
			"type":"VEC3"
		},
		{
			"bufferView":23,
			"componentType":5123,
			"count":864,
			"type":"SCALAR"
		},
		{
			"bufferView":24,
			"componentType":5126,
			"count":20,
			"max":[
				0.8333333333333334
			],
			"min":[
				0.041666666666666664
			],
			"type":"SCALAR"
		},
		{
			"bufferView":25,
			"componentType":5126,
			"count":20,
			"type":"VEC3"
		},
		{
			"bufferView":26,
			"componentType":5126,
			"count":1,
			"max":[
				0.8333333333333334
			],
			"min":[
				0.8333333333333334
			],
			"type":"SCALAR"
		},
		{
			"bufferView":27,
			"componentType":5126,
			"count":1,
			"type":"VEC3"
		},
		{
			"bufferView":28,
			"componentType":5126,
			"count":20,
			"type":"VEC3"
		},
		{
			"bufferView":29,
			"componentType":5126,
			"count":1,
			"type":"VEC3"
		},
		{
			"bufferView":30,
			"componentType":5126,
			"count":20,
			"type":"VEC3"
		},
		{
			"bufferView":31,
			"componentType":5126,
			"count":1,
			"type":"VEC3"
		}
	],
	"bufferViews":[
		{
			"buffer":0,
			"byteLength":2304,
			"byteOffset":0,
			"target":34962
		},
		{
			"buffer":0,
			"byteLength":1536,
			"byteOffset":2304,
			"target":34962
		},
		{
			"buffer":0,
			"byteLength":2304,
			"byteOffset":3840,
			"target":34962
		},
		{
			"buffer":0,
			"byteLength":528,
			"byteOffset":6144,
			"target":34963
		},
		{
			"buffer":0,
			"byteLength":7656,
			"byteOffset":6672,
			"target":34962
		},
		{
			"buffer":0,
			"byteLength":5104,
			"byteOffset":14328,
			"target":34962
		},
		{
			"buffer":0,
			"byteLength":7656,
			"byteOffset":19432,
			"target":34962
		},
		{
			"buffer":0,
			"byteLength":1728,
			"byteOffset":27088,
			"target":34963
		},
		{
			"buffer":0,
			"byteLength":2304,
			"byteOffset":28816,
			"target":34962
		},
		{
			"buffer":0,
			"byteLength":1536,
			"byteOffset":31120,
			"target":34962
		},
		{
			"buffer":0,
			"byteLength":2304,
			"byteOffset":32656,
			"target":34962
		},
		{
			"buffer":0,
			"byteLength":528,
			"byteOffset":34960,
			"target":34963
		},
		{
			"buffer":0,
			"byteLength":7656,
			"byteOffset":35488,
			"target":34962
		},
		{
			"buffer":0,
			"byteLength":5104,
			"byteOffset":43144,
			"target":34962
		},
		{
			"buffer":0,
			"byteLength":7656,
			"byteOffset":48248,
			"target":34962
		},
		{
			"buffer":0,
			"byteLength":1728,
			"byteOffset":55904,
			"target":34963
		},
		{
			"buffer":0,
			"byteLength":2304,
			"byteOffset":57632,
			"target":34962
		},
		{
			"buffer":0,
			"byteLength":1536,
			"byteOffset":59936,
			"target":34962
		},
		{
			"buffer":0,
			"byteLength":2304,
			"byteOffset":61472,
			"target":34962
		},
		{
			"buffer":0,
			"byteLength":528,
			"byteOffset":63776,
			"target":34963
		},
		{
			"buffer":0,
			"byteLength":7656,
			"byteOffset":64304,
			"target":34962
		},
		{
			"buffer":0,
			"byteLength":5104,
			"byteOffset":71960,
			"target":34962
		},
		{
			"buffer":0,
			"byteLength":7656,
			"byteOffset":77064,
			"target":34962
		},
		{
			"buffer":0,
			"byteLength":1728,
			"byteOffset":84720,
			"target":34963
		},
		{
			"buffer":0,
			"byteLength":80,
			"byteOffset":86448
		},
		{
			"buffer":0,
			"byteLength":240,
			"byteOffset":86528
		},
		{
			"buffer":0,
			"byteLength":4,
			"byteOffset":86768
		},
		{
			"buffer":0,
			"byteLength":12,
			"byteOffset":86772
		},
		{
			"buffer":0,
			"byteLength":240,
			"byteOffset":86784
		},
		{
			"buffer":0,
			"byteLength":12,
			"byteOffset":87024
		},
		{
			"buffer":0,
			"byteLength":240,
			"byteOffset":87036
		},
		{
			"buffer":0,
			"byteLength":12,
			"byteOffset":87276
		}
	],
	"buffers":[
		{
			"byteLength":87288,
			"uri":"data:application/octet-stream;base64,"
		}
	]
}
