{
	"asset":{
		"generator":"Khronos glTF Blender I/O v3.5.30",
		"version":"2.0"
	},
	"scene":0,
	"scenes":[
		{
			"name":"Scene",
			"nodes":[
				0
			]
		}
	],
	"nodes":[
		{
			"mesh":0,
			"name":"Tree_average_regular",
			"rotation":[
				0,
				-0.9627664685249329,
				0,
				0.2703344523906708
			],
			"scale":[
				0.008757059462368488,
				0.008757059462368488,
				0.008757059462368488
			],
			"translation":[
				-0.018373340368270874,
				0,
				0.08635294437408447
			]
		}
	],
	"animations":[
		{
			"channels":[
				{
					"sampler":0,
					"target":{
						"node":0,
						"path":"scale"
					}
				}
			],
			"name":"Tree_average_regularAction.003",
			"samplers":[
				{
					"input":8,
					"interpolation":"LINEAR",
					"output":9
				}
			]
		}
	],
	"materials":[
		{
			"doubleSided":true,
			"name":"Material.005",
			"pbrMetallicRoughness":{
				"baseColorFactor":[
					0.080219566822052,
					0.2422809600830078,
					0.162029430270195,
					1
				],
				"metallicFactor":0,
				"roughnessFactor":0.5
			}
		},
		{
			"doubleSided":true,
			"name":"Material.006",
			"pbrMetallicRoughness":{
				"baseColorFactor":[
					0.14915041625499725,
					0.060736577957868576,
					0.03477134183049202,
					1
				],
				"metallicFactor":0,
				"roughnessFactor":0.5
			}
		}
	],
	"meshes":[
		{
			"name":"Cube.002",
			"primitives":[
				{
					"attributes":{
						"POSITION":0,
						"TEXCOORD_0":1,
						"NORMAL":2
					},
					"indices":3,
					"material":0
				},
				{
					"attributes":{
						"POSITION":4,
						"TEXCOORD_0":5,
						"NORMAL":6
					},
					"indices":7,
					"material":1
				}
			]
		}
	],
	"accessors":[
		{
			"bufferView":0,
			"componentType":5126,
			"count":1662,
			"max":[
				6.572398662567139,
				14.620043754577637,
				6.418869495391846
			],
			"min":[
				-8.115511894226074,
				7.644827842712402,
				-5.61820125579834
			],
			"type":"VEC3"
		},
		{
			"bufferView":1,
			"componentType":5126,
			"count":1662,
			"type":"VEC2"
		},
		{
			"bufferView":2,
			"componentType":5126,
			"count":1662,
			"type":"VEC3"
		},
		{
			"bufferView":3,
			"componentType":5123,
			"count":1728,
			"type":"SCALAR"
		},
		{
			"bufferView":4,
			"componentType":5126,
			"count":495,
			"max":[
				5.122095584869385,
				12.977108001708984,
				4.1825175285339355
			],
			"min":[
				-5.966091632843018,
				-0.0017659016884863377,
				-2.6920573711395264
			],
			"type":"VEC3"
		},
		{
			"bufferView":5,
			"componentType":5126,
			"count":495,
			"type":"VEC2"
		},
		{
			"bufferView":6,
			"componentType":5126,
			"count":495,
			"type":"VEC3"
		},
		{
			"bufferView":7,
			"componentType":5123,
			"count":696,
			"type":"SCALAR"
		},
		{
			"bufferView":8,
			"componentType":5126,
			"count":20,
			"max":[
				0.8333333333333334
			],
			"min":[
				0.041666666666666664
			],
			"type":"SCALAR"
		},
		{
			"bufferView":9,
			"componentType":5126,
			"count":20,
			"type":"VEC3"
		}
	],
	"bufferViews":[
		{
			"buffer":0,
			"byteLength":19944,
			"byteOffset":0,
			"target":34962
		},
		{
			"buffer":0,
			"byteLength":13296,
			"byteOffset":19944,
			"target":34962
		},
		{
			"buffer":0,
			"byteLength":19944,
			"byteOffset":33240,
			"target":34962
		},
		{
			"buffer":0,
			"byteLength":3456,
			"byteOffset":53184,
			"target":34963
		},
		{
			"buffer":0,
			"byteLength":5940,
			"byteOffset":56640,
			"target":34962
		},
		{
			"buffer":0,
			"byteLength":3960,
			"byteOffset":62580,
			"target":34962
		},
		{
			"buffer":0,
			"byteLength":5940,
			"byteOffset":66540,
			"target":34962
		},
		{
			"buffer":0,
			"byteLength":1392,
			"byteOffset":72480,
			"target":34963
		},
		{
			"buffer":0,
			"byteLength":80,
			"byteOffset":73872
		},
		{
			"buffer":0,
			"byteLength":240,
			"byteOffset":73952
		}
	],
	"buffers":[
		{
			"byteLength":74192,
			"uri":"data:application/octet-stream;base64,"
		}
	]
}
