{
	"asset":{
		"generator":"Khronos glTF Blender I/O v3.5.30",
		"version":"2.0"
	},
	"scene":0,
	"scenes":[
		{
			"name":"Scene",
			"nodes":[
				0
			]
		}
	],
	"nodes":[
		{
			"mesh":0,
			"name":"Tree_Spruce_tiny_01",
			"scale":[
				0.0073251016438007355,
				0.0073251016438007355,
				0.0073251016438007355
			],
			"translation":[
				0.00018850713968276978,
				0.004926756024360657,
				0.0007586204446852207
			]
		}
	],
	"animations":[
		{
			"channels":[
				{
					"sampler":0,
					"target":{
						"node":0,
						"path":"scale"
					}
				}
			],
			"name":"Tree_Spruce_tiny_01Action",
			"samplers":[
				{
					"input":8,
					"interpolation":"LINEAR",
					"output":9
				}
			]
		}
	],
	"materials":[
		{
			"doubleSided":true,
			"name":"Material",
			"pbrMetallicRoughness":{
				"baseColorFactor":[
					0.080219566822052,
					0.2422809600830078,
					0.162029430270195,
					1
				],
				"metallicFactor":0,
				"roughnessFactor":0.5
			}
		},
		{
			"doubleSided":true,
			"name":"Material.001",
			"pbrMetallicRoughness":{
				"baseColorFactor":[
					0.12621837854385376,
					0.028423426672816277,
					0.017865316942334175,
					1
				],
				"metallicFactor":0,
				"roughnessFactor":0.5
			}
		}
	],
	"meshes":[
		{
			"name":"Cylinder.012",
			"primitives":[
				{
					"attributes":{
						"POSITION":0,
						"TEXCOORD_0":1,
						"NORMAL":2
					},
					"indices":3,
					"material":0
				},
				{
					"attributes":{
						"POSITION":4,
						"TEXCOORD_0":5,
						"NORMAL":6
					},
					"indices":7,
					"material":1
				}
			]
		}
	],
	"accessors":[
		{
			"bufferView":0,
			"componentType":5126,
			"count":360,
			"max":[
				2.886451244354248,
				11.005311965942383,
				2.757803440093994
			],
			"min":[
				-2.543914794921875,
				1.8577715158462524,
				-2.743320941925049
			],
			"type":"VEC3"
		},
		{
			"bufferView":1,
			"componentType":5126,
			"count":360,
			"type":"VEC2"
		},
		{
			"bufferView":2,
			"componentType":5126,
			"count":360,
			"type":"VEC3"
		},
		{
			"bufferView":3,
			"componentType":5123,
			"count":504,
			"type":"SCALAR"
		},
		{
			"bufferView":4,
			"componentType":5126,
			"count":96,
			"max":[
				0.7763398885726929,
				4.230972766876221,
				0.7586649656295776
			],
			"min":[
				-0.9501172304153442,
				0,
				-0.94856196641922
			],
			"type":"VEC3"
		},
		{
			"bufferView":5,
			"componentType":5126,
			"count":96,
			"type":"VEC2"
		},
		{
			"bufferView":6,
			"componentType":5126,
			"count":96,
			"type":"VEC3"
		},
		{
			"bufferView":7,
			"componentType":5123,
			"count":144,
			"type":"SCALAR"
		},
		{
			"bufferView":8,
			"componentType":5126,
			"count":20,
			"max":[
				0.8333333333333334
			],
			"min":[
				0.041666666666666664
			],
			"type":"SCALAR"
		},
		{
			"bufferView":9,
			"componentType":5126,
			"count":20,
			"type":"VEC3"
		}
	],
	"bufferViews":[
		{
			"buffer":0,
			"byteLength":4320,
			"byteOffset":0,
			"target":34962
		},
		{
			"buffer":0,
			"byteLength":2880,
			"byteOffset":4320,
			"target":34962
		},
		{
			"buffer":0,
			"byteLength":4320,
			"byteOffset":7200,
			"target":34962
		},
		{
			"buffer":0,
			"byteLength":1008,
			"byteOffset":11520,
			"target":34963
		},
		{
			"buffer":0,
			"byteLength":1152,
			"byteOffset":12528,
			"target":34962
		},
		{
			"buffer":0,
			"byteLength":768,
			"byteOffset":13680,
			"target":34962
		},
		{
			"buffer":0,
			"byteLength":1152,
			"byteOffset":14448,
			"target":34962
		},
		{
			"buffer":0,
			"byteLength":288,
			"byteOffset":15600,
			"target":34963
		},
		{
			"buffer":0,
			"byteLength":80,
			"byteOffset":15888
		},
		{
			"buffer":0,
			"byteLength":240,
			"byteOffset":15968
		}
	],
	"buffers":[
		{
			"byteLength":16208,
			"uri":"data:application/octet-stream;base64,"
		}
	]
}
