{
	"asset":{
		"generator":"Khronos glTF Blender I/O v3.5.30",
		"version":"2.0"
	},
	"scene":0,
	"scenes":[
		{
			"name":"Scene",
			"nodes":[
				0
			]
		}
	],
	"nodes":[
		{
			"mesh":0,
			"name":"Stone_group_average_mossy",
			"scale":[
				1.0894843339920044,
				1.0894843339920044,
				1.0894843339920044
			],
			"translation":[
				-0.036266058683395386,
				0.058548714965581894,
				0.022770153358578682
			]
		}
	],
	"animations":[
		{
			"channels":[
				{
					"sampler":0,
					"target":{
						"node":0,
						"path":"scale"
					}
				}
			],
			"name":"Stone_group_average_mossyAction.003",
			"samplers":[
				{
					"input":4,
					"interpolation":"LINEAR",
					"output":5
				}
			]
		}
	],
	"materials":[
		{
			"doubleSided":true,
			"name":"Material.007",
			"pbrMetallicRoughness":{
				"baseColorFactor":[
					0.23698967695236206,
					0.23698967695236206,
					0.23698967695236206,
					1
				],
				"metallicFactor":0,
				"roughnessFactor":0.5
			}
		}
	],
	"meshes":[
		{
			"name":"Icosphere.030",
			"primitives":[
				{
					"attributes":{
						"POSITION":0,
						"TEXCOORD_0":1,
						"NORMAL":2
					},
					"indices":3,
					"material":0
				}
			]
		}
	],
	"accessors":[
		{
			"bufferView":0,
			"componentType":5126,
			"count":892,
			"max":[
				0.04534412547945976,
				0.01996157318353653,
				0.02561923861503601
			],
			"min":[
				-0.03273283317685127,
				-0.006833042949438095,
				-0.02590535581111908
			],
			"type":"VEC3"
		},
		{
			"bufferView":1,
			"componentType":5126,
			"count":892,
			"type":"VEC2"
		},
		{
			"bufferView":2,
			"componentType":5126,
			"count":892,
			"type":"VEC3"
		},
		{
			"bufferView":3,
			"componentType":5123,
			"count":1146,
			"type":"SCALAR"
		},
		{
			"bufferView":4,
			"componentType":5126,
			"count":20,
			"max":[
				0.8333333333333334
			],
			"min":[
				0.041666666666666664
			],
			"type":"SCALAR"
		},
		{
			"bufferView":5,
			"componentType":5126,
			"count":20,
			"type":"VEC3"
		}
	],
	"bufferViews":[
		{
			"buffer":0,
			"byteLength":10704,
			"byteOffset":0,
			"target":34962
		},
		{
			"buffer":0,
			"byteLength":7136,
			"byteOffset":10704,
			"target":34962
		},
		{
			"buffer":0,
			"byteLength":10704,
			"byteOffset":17840,
			"target":34962
		},
		{
			"buffer":0,
			"byteLength":2292,
			"byteOffset":28544,
			"target":34963
		},
		{
			"buffer":0,
			"byteLength":80,
			"byteOffset":30836
		},
		{
			"buffer":0,
			"byteLength":240,
			"byteOffset":30916
		}
	],
	"buffers":[
		{
			"byteLength":31156,
			"uri":"data:application/octet-stream;base64,"
		}
	]
}
