{
	"asset":{
		"generator":"Khronos glTF Blender I/O v3.5.30",
		"version":"2.0"
	},
	"scene":0,
	"scenes":[
		{
			"name":"Scene",
			"nodes":[
				11
			]
		}
	],
	"nodes":[
		{
			"name":"Bone.01.R",
			"rotation":[
				-0.4380582571029663,
				0.4957434833049774,
				-0.4929516017436981,
				0.5651037096977234
			],
			"scale":[
				1.0000001192092896,
				1.000000238418579,
				1.000000238418579
			],
			"translation":[
				-4.6566128730773926e-09,
				0.571687638759613,
				-4.0978193283081055e-08
			]
		},
		{
			"children":[
				0
			],
			"name":"Bone.00.R",
			"rotation":[
				0.4380684792995453,
				-0.4961497187614441,
				0.49614962935447693,
				0.5619315505027771
			],
			"scale":[
				0.9999998807907104,
				1,
				0.9999999403953552
			],
			"translation":[
				5.285787363362715e-10,
				0.28201568126678467,
				3.2069207289708856e-09
			]
		},
		{
			"name":"Bone.06.L",
			"rotation":[
				-0.4380582571029663,
				-0.4957434833049774,
				0.4929516017436981,
				0.5651037096977234
			],
			"scale":[
				1.0000001192092896,
				1.000000238418579,
				1.000000238418579
			],
			"translation":[
				-3.725290298461914e-09,
				0.571687638759613,
				-8.940696716308594e-08
			]
		},
		{
			"children":[
				2
			],
			"name":"Bone.05.L",
			"rotation":[
				0.4380684792995453,
				0.4961497187614441,
				-0.49614962935447693,
				0.5619315505027771
			],
			"scale":[
				0.9999998807907104,
				1,
				0.9999999403953552
			],
			"translation":[
				5.285787363362715e-10,
				0.28201568126678467,
				3.2069207289708856e-09
			]
		},
		{
			"children":[
				1,
				3
			],
			"name":"Bone.03",
			"rotation":[
				0.0018251007422804832,
				-4.693447408499196e-08,
				-0.00740306219086051,
				0.9999709725379944
			],
			"scale":[
				1,
				1.0000001192092896,
				1.0000001192092896
			],
			"translation":[
				1.0526264304644428e-08,
				1.2426941394805908,
				3.024752004421316e-09
			]
		},
		{
			"children":[
				4
			],
			"name":"Bone.02",
			"rotation":[
				0.9999709129333496,
				-0.0074030617251992226,
				4.8079563441660866e-08,
				0.0018252228619530797
			],
			"scale":[
				0.9999998807907104,
				1,
				0.9999999403953552
			],
			"translation":[
				0.0183989480137825,
				1.9475148916244507,
				-0.0045362599194049835
			]
		},
		{
			"name":"Bone.005",
			"rotation":[
				-0.16533930599689484,
				0.0002380600053584203,
				0.14908236265182495,
				0.9749037623405457
			],
			"scale":[
				1.0000001192092896,
				1.0000001192092896,
				0.9999999403953552
			],
			"translation":[
				-1.7229467630386353e-08,
				0.49828967452049255,
				-6.931446705493727e-08
			]
		},
		{
			"children":[
				6
			],
			"name":"Bone.004",
			"rotation":[
				-0.05821731314063072,
				-0.006214104127138853,
				-0.04160290211439133,
				0.9974173307418823
			],
			"scale":[
				1,
				0.9999998807907104,
				0.9999998211860657
			],
			"translation":[
				-1.280568540096283e-08,
				0.37971875071525574,
				4.1614839574322104e-08
			]
		},
		{
			"children":[
				7
			],
			"name":"Bone.003",
			"rotation":[
				-0.06883815675973892,
				-0.0024160253815352917,
				-0.03327184543013573,
				0.9970699548721313
			],
			"translation":[
				0.0183989480137825,
				1.9475148916244507,
				-0.0045362599194049835
			]
		},
		{
			"mesh":0,
			"name":"G-Glass Vases with Leaves_5.001",
			"skin":0
		},
		{
			"mesh":1,
			"name":"Run",
			"skin":0
		},
		{
			"children":[
				9,
				10,
				5,
				8
			],
			"name":"Run.001",
			"scale":[
				0.17809703946113586,
				0.17809703946113586,
				0.17809703946113586
			],
			"translation":[
				-0.021979589015245438,
				0.14490270614624023,
				-0.008419637568295002
			]
		}
	],
	"animations":[
		{
			"channels":[
				{
					"sampler":0,
					"target":{
						"node":5,
						"path":"translation"
					}
				},
				{
					"sampler":1,
					"target":{
						"node":5,
						"path":"rotation"
					}
				},
				{
					"sampler":2,
					"target":{
						"node":5,
						"path":"scale"
					}
				},
				{
					"sampler":3,
					"target":{
						"node":4,
						"path":"translation"
					}
				},
				{
					"sampler":4,
					"target":{
						"node":4,
						"path":"rotation"
					}
				},
				{
					"sampler":5,
					"target":{
						"node":4,
						"path":"scale"
					}
				},
				{
					"sampler":6,
					"target":{
						"node":1,
						"path":"translation"
					}
				},
				{
					"sampler":7,
					"target":{
						"node":1,
						"path":"rotation"
					}
				},
				{
					"sampler":8,
					"target":{
						"node":1,
						"path":"scale"
					}
				},
				{
					"sampler":9,
					"target":{
						"node":0,
						"path":"translation"
					}
				},
				{
					"sampler":10,
					"target":{
						"node":0,
						"path":"rotation"
					}
				},
				{
					"sampler":11,
					"target":{
						"node":0,
						"path":"scale"
					}
				},
				{
					"sampler":12,
					"target":{
						"node":3,
						"path":"translation"
					}
				},
				{
					"sampler":13,
					"target":{
						"node":3,
						"path":"rotation"
					}
				},
				{
					"sampler":14,
					"target":{
						"node":3,
						"path":"scale"
					}
				},
				{
					"sampler":15,
					"target":{
						"node":2,
						"path":"translation"
					}
				},
				{
					"sampler":16,
					"target":{
						"node":2,
						"path":"rotation"
					}
				},
				{
					"sampler":17,
					"target":{
						"node":2,
						"path":"scale"
					}
				},
				{
					"sampler":18,
					"target":{
						"node":8,
						"path":"translation"
					}
				},
				{
					"sampler":19,
					"target":{
						"node":8,
						"path":"rotation"
					}
				},
				{
					"sampler":20,
					"target":{
						"node":8,
						"path":"scale"
					}
				},
				{
					"sampler":21,
					"target":{
						"node":7,
						"path":"translation"
					}
				},
				{
					"sampler":22,
					"target":{
						"node":7,
						"path":"rotation"
					}
				},
				{
					"sampler":23,
					"target":{
						"node":7,
						"path":"scale"
					}
				},
				{
					"sampler":24,
					"target":{
						"node":6,
						"path":"translation"
					}
				},
				{
					"sampler":25,
					"target":{
						"node":6,
						"path":"rotation"
					}
				},
				{
					"sampler":26,
					"target":{
						"node":6,
						"path":"scale"
					}
				},
				{
					"sampler":27,
					"target":{
						"node":10,
						"path":"translation"
					}
				}
			],
			"name":"Run",
			"samplers":[
				{
					"input":13,
					"interpolation":"LINEAR",
					"output":14
				},
				{
					"input":13,
					"interpolation":"LINEAR",
					"output":15
				},
				{
					"input":13,
					"interpolation":"LINEAR",
					"output":16
				},
				{
					"input":13,
					"interpolation":"LINEAR",
					"output":17
				},
				{
					"input":13,
					"interpolation":"LINEAR",
					"output":18
				},
				{
					"input":13,
					"interpolation":"LINEAR",
					"output":19
				},
				{
					"input":13,
					"interpolation":"LINEAR",
					"output":20
				},
				{
					"input":13,
					"interpolation":"LINEAR",
					"output":21
				},
				{
					"input":13,
					"interpolation":"LINEAR",
					"output":22
				},
				{
					"input":13,
					"interpolation":"LINEAR",
					"output":23
				},
				{
					"input":13,
					"interpolation":"LINEAR",
					"output":24
				},
				{
					"input":13,
					"interpolation":"LINEAR",
					"output":25
				},
				{
					"input":13,
					"interpolation":"LINEAR",
					"output":26
				},
				{
					"input":13,
					"interpolation":"LINEAR",
					"output":27
				},
				{
					"input":13,
					"interpolation":"LINEAR",
					"output":28
				},
				{
					"input":13,
					"interpolation":"LINEAR",
					"output":29
				},
				{
					"input":13,
					"interpolation":"LINEAR",
					"output":30
				},
				{
					"input":13,
					"interpolation":"LINEAR",
					"output":31
				},
				{
					"input":13,
					"interpolation":"LINEAR",
					"output":32
				},
				{
					"input":13,
					"interpolation":"LINEAR",
					"output":33
				},
				{
					"input":13,
					"interpolation":"LINEAR",
					"output":34
				},
				{
					"input":13,
					"interpolation":"LINEAR",
					"output":35
				},
				{
					"input":13,
					"interpolation":"LINEAR",
					"output":36
				},
				{
					"input":13,
					"interpolation":"LINEAR",
					"output":37
				},
				{
					"input":13,
					"interpolation":"LINEAR",
					"output":38
				},
				{
					"input":13,
					"interpolation":"LINEAR",
					"output":39
				},
				{
					"input":13,
					"interpolation":"LINEAR",
					"output":40
				},
				{
					"input":13,
					"interpolation":"LINEAR",
					"output":41
				}
			]
		}
	],
	"materials":[
		{
			"doubleSided":true,
			"name":"Material.002",
			"pbrMetallicRoughness":{
				"baseColorFactor":[
					0.010195977985858917,
					0.12261104583740234,
					0.008842353709042072,
					1
				],
				"metallicFactor":0,
				"roughnessFactor":0.5
			}
		},
		{
			"doubleSided":true,
			"name":"Material.001",
			"pbrMetallicRoughness":{
				"baseColorTexture":{
					"index":0
				},
				"metallicFactor":0,
				"roughnessFactor":0.5
			}
		}
	],
	"meshes":[
		{
			"name":"G-Glass Vases with Leaves_5.001",
			"primitives":[
				{
					"attributes":{
						"POSITION":0,
						"TEXCOORD_0":1,
						"NORMAL":2,
						"JOINTS_0":3,
						"WEIGHTS_0":4
					},
					"indices":5,
					"material":0
				}
			]
		},
		{
			"name":"Vert.001",
			"primitives":[
				{
					"attributes":{
						"POSITION":7,
						"TEXCOORD_0":8,
						"NORMAL":9,
						"JOINTS_0":10,
						"WEIGHTS_0":11
					},
					"indices":12,
					"material":1
				}
			]
		}
	],
	"textures":[
		{
			"sampler":0,
			"source":0
		}
	],
	"images":[
		{
			"bufferView":13,
			"mimeType":"image/png",
			"name":"Material"
		}
	],
	"skins":[
		{
			"inverseBindMatrices":6,
			"joints":[
				5,
				4,
				1,
				0,
				3,
				2,
				8,
				7,
				6
			],
			"name":"Run.001"
		}
	],
	"accessors":[
		{
			"bufferView":0,
			"componentType":5126,
			"count":349,
			"max":[
				0.04574059695005417,
				0.8030951023101807,
				-0.005081009119749069
			],
			"min":[
				-0.06121185049414635,
				0.4374412000179291,
				-0.2075013667345047
			],
			"type":"VEC3"
		},
		{
			"bufferView":1,
			"componentType":5126,
			"count":349,
			"type":"VEC2"
		},
		{
			"bufferView":2,
			"componentType":5126,
			"count":349,
			"type":"VEC3"
		},
		{
			"bufferView":3,
			"componentType":5121,
			"count":349,
			"type":"VEC4"
		},
		{
			"bufferView":4,
			"componentType":5126,
			"count":349,
			"type":"VEC4"
		},
		{
			"bufferView":5,
			"componentType":5123,
			"count":1689,
			"type":"SCALAR"
		},
		{
			"bufferView":6,
			"componentType":5126,
			"count":9,
			"type":"MAT4"
		},
		{
			"bufferView":7,
			"componentType":5126,
			"count":2032,
			"max":[
				0.13934263586997986,
				0.5082062482833862,
				0.1268673539161682
			],
			"min":[
				-0.18275634944438934,
				0.07313934713602066,
				-0.14370664954185486
			],
			"type":"VEC3"
		},
		{
			"bufferView":8,
			"componentType":5126,
			"count":2032,
			"type":"VEC2"
		},
		{
			"bufferView":9,
			"componentType":5126,
			"count":2032,
			"type":"VEC3"
		},
		{
			"bufferView":10,
			"componentType":5121,
			"count":2032,
			"type":"VEC4"
		},
		{
			"bufferView":11,
			"componentType":5126,
			"count":2032,
			"type":"VEC4"
		},
		{
			"bufferView":12,
			"componentType":5123,
			"count":3048,
			"type":"SCALAR"
		},
		{
			"bufferView":14,
			"componentType":5126,
			"count":13,
			"max":[
				0.5
			],
			"min":[
				0
			],
			"type":"SCALAR"
		},
		{
			"bufferView":15,
			"componentType":5126,
			"count":13,
			"type":"VEC3"
		},
		{
			"bufferView":16,
			"componentType":5126,
			"count":13,
			"type":"VEC4"
		},
		{
			"bufferView":17,
			"componentType":5126,
			"count":13,
			"type":"VEC3"
		},
		{
			"bufferView":18,
			"componentType":5126,
			"count":13,
			"type":"VEC3"
		},
		{
			"bufferView":19,
			"componentType":5126,
			"count":13,
			"type":"VEC4"
		},
		{
			"bufferView":20,
			"componentType":5126,
			"count":13,
			"type":"VEC3"
		},
		{
			"bufferView":21,
			"componentType":5126,
			"count":13,
			"type":"VEC3"
		},
		{
			"bufferView":22,
			"componentType":5126,
			"count":13,
			"type":"VEC4"
		},
		{
			"bufferView":23,
			"componentType":5126,
			"count":13,
			"type":"VEC3"
		},
		{
			"bufferView":24,
			"componentType":5126,
			"count":13,
			"type":"VEC3"
		},
		{
			"bufferView":25,
			"componentType":5126,
			"count":13,
			"type":"VEC4"
		},
		{
			"bufferView":26,
			"componentType":5126,
			"count":13,
			"type":"VEC3"
		},
		{
			"bufferView":27,
			"componentType":5126,
			"count":13,
			"type":"VEC3"
		},
		{
			"bufferView":28,
			"componentType":5126,
			"count":13,
			"type":"VEC4"
		},
		{
			"bufferView":29,
			"componentType":5126,
			"count":13,
			"type":"VEC3"
		},
		{
			"bufferView":30,
			"componentType":5126,
			"count":13,
			"type":"VEC3"
		},
		{
			"bufferView":31,
			"componentType":5126,
			"count":13,
			"type":"VEC4"
		},
		{
			"bufferView":32,
			"componentType":5126,
			"count":13,
			"type":"VEC3"
		},
		{
			"bufferView":33,
			"componentType":5126,
			"count":13,
			"type":"VEC3"
		},
		{
			"bufferView":34,
			"componentType":5126,
			"count":13,
			"type":"VEC4"
		},
		{
			"bufferView":35,
			"componentType":5126,
			"count":13,
			"type":"VEC3"
		},
		{
			"bufferView":36,
			"componentType":5126,
			"count":13,
			"type":"VEC3"
		},
		{
			"bufferView":37,
			"componentType":5126,
			"count":13,
			"type":"VEC4"
		},
		{
			"bufferView":38,
			"componentType":5126,
			"count":13,
			"type":"VEC3"
		},
		{
			"bufferView":39,
			"componentType":5126,
			"count":13,
			"type":"VEC3"
		},
		{
			"bufferView":40,
			"componentType":5126,
			"count":13,
			"type":"VEC4"
		},
		{
			"bufferView":41,
			"componentType":5126,
			"count":13,
			"type":"VEC3"
		},
		{
			"bufferView":42,
			"componentType":5126,
			"count":13,
			"type":"VEC3"
		}
	],
	"bufferViews":[
		{
			"buffer":0,
			"byteLength":4188,
			"byteOffset":0,
			"target":34962
		},
		{
			"buffer":0,
			"byteLength":2792,
			"byteOffset":4188,
			"target":34962
		},
		{
			"buffer":0,
			"byteLength":4188,
			"byteOffset":6980,
			"target":34962
		},
		{
			"buffer":0,
			"byteLength":1396,
			"byteOffset":11168,
			"target":34962
		},
		{
			"buffer":0,
			"byteLength":5584,
			"byteOffset":12564,
			"target":34962
		},
		{
			"buffer":0,
			"byteLength":3378,
			"byteOffset":18148,
			"target":34963
		},
		{
			"buffer":0,
			"byteLength":576,
			"byteOffset":21528
		},
		{
			"buffer":0,
			"byteLength":24384,
			"byteOffset":22104,
			"target":34962
		},
		{
			"buffer":0,
			"byteLength":16256,
			"byteOffset":46488,
			"target":34962
		},
		{
			"buffer":0,
			"byteLength":24384,
			"byteOffset":62744,
			"target":34962
		},
		{
			"buffer":0,
			"byteLength":8128,
			"byteOffset":87128,
			"target":34962
		},
		{
			"buffer":0,
			"byteLength":32512,
			"byteOffset":95256,
			"target":34962
		},
		{
			"buffer":0,
			"byteLength":6096,
			"byteOffset":127768,
			"target":34963
		},
		{
			"buffer":0,
			"byteLength":29235,
			"byteOffset":133864
		},
		{
			"buffer":0,
			"byteLength":52,
			"byteOffset":163100
		},
		{
			"buffer":0,
			"byteLength":156,
			"byteOffset":163152
		},
		{
			"buffer":0,
			"byteLength":208,
			"byteOffset":163308
		},
		{
			"buffer":0,
			"byteLength":156,
			"byteOffset":163516
		},
		{
			"buffer":0,
			"byteLength":156,
			"byteOffset":163672
		},
		{
			"buffer":0,
			"byteLength":208,
			"byteOffset":163828
		},
		{
			"buffer":0,
			"byteLength":156,
			"byteOffset":164036
		},
		{
			"buffer":0,
			"byteLength":156,
			"byteOffset":164192
		},
		{
			"buffer":0,
			"byteLength":208,
			"byteOffset":164348
		},
		{
			"buffer":0,
			"byteLength":156,
			"byteOffset":164556
		},
		{
			"buffer":0,
			"byteLength":156,
			"byteOffset":164712
		},
		{
			"buffer":0,
			"byteLength":208,
			"byteOffset":164868
		},
		{
			"buffer":0,
			"byteLength":156,
			"byteOffset":165076
		},
		{
			"buffer":0,
			"byteLength":156,
			"byteOffset":165232
		},
		{
			"buffer":0,
			"byteLength":208,
			"byteOffset":165388
		},
		{
			"buffer":0,
			"byteLength":156,
			"byteOffset":165596
		},
		{
			"buffer":0,
			"byteLength":156,
			"byteOffset":165752
		},
		{
			"buffer":0,
			"byteLength":208,
			"byteOffset":165908
		},
		{
			"buffer":0,
			"byteLength":156,
			"byteOffset":166116
		},
		{
			"buffer":0,
			"byteLength":156,
			"byteOffset":166272
		},
		{
			"buffer":0,
			"byteLength":208,
			"byteOffset":166428
		},
		{
			"buffer":0,
			"byteLength":156,
			"byteOffset":166636
		},
		{
			"buffer":0,
			"byteLength":156,
			"byteOffset":166792
		},
		{
			"buffer":0,
			"byteLength":208,
			"byteOffset":166948
		},
		{
			"buffer":0,
			"byteLength":156,
			"byteOffset":167156
		},
		{
			"buffer":0,
			"byteLength":156,
			"byteOffset":167312
		},
		{
			"buffer":0,
			"byteLength":208,
			"byteOffset":167468
		},
		{
			"buffer":0,
			"byteLength":156,
			"byteOffset":167676
		},
		{
			"buffer":0,
			"byteLength":156,
			"byteOffset":167832
		}
	],
	"samplers":[
		{
			"magFilter":9729,
			"minFilter":9987
		}
	],
	"buffers":[
		{
			"byteLength":167988,
			"uri":"data:application/octet-stream;base64,"
		}
	]
}
